<!DOCTYPE svg PUBLIC "-//W3C//DTD SVG 20010904//EN" "http://www.w3.org/TR/2001/REC-SVG-20010904/DTD/svg10.dtd">
<svg version="1.0" xmlns="http://www.w3.org/2000/svg" width="1313px" height="488px" viewBox="0 0 13130 4880" preserveAspectRatio="xMidYMid meet">
<g id="layer1" fill="#fcfcfc" stroke="none">
 <path d="M1028 3559 c-17 -9 -18 -46 -18 -540 0 -346 4 -537 10 -550 10 -18 25 -19 353 -19 254 0 346 3 355 12 9 9 12 79 12 254 0 276 -1 274 76 274 49 0 66 19 46 51 -8 13 -12 94 -12 258 0 237 0 240 -22 255 -19 14 -74 16 -403 16 -239 0 -386 -4 -397 -11z m518 -233 c19 -27 20 -216 1 -216 -7 0 -20 -9 -30 -20 -15 -17 -29 -20 -114 -20 -84 0 -101 3 -130 23 l-33 22 2 105 c4 132 3 132 171 128 104 -3 120 -5 133 -22z m-106 -536 c31 -31 27 -100 -7 -140 -26 -31 -29 -32 -89 -28 -88 5 -104 22 -104 105 0 76 7 81 113 82 54 1 71 -3 87 -19z"/>
 <path d="M2031 3557 c-8 -11 -10 -158 -9 -558 l3 -544 445 -3 445 -2 20 24 c20 25 20 36 15 545 -4 408 -8 523 -18 533 -20 20 -884 24 -901 5z m619 -316 c11 -21 14 -407 4 -459 -9 -43 -42 -52 -186 -52 -139 0 -172 11 -182 61 -3 17 -6 123 -6 235 0 171 2 205 16 218 13 13 44 16 179 16 152 0 165 -1 175 -19z"/>
 <path d="M3120 3560 c-21 -13 -14 -89 11 -116 11 -12 22 -39 26 -60 3 -21 13 -48 23 -59 10 -11 20 -36 24 -56 4 -21 13 -43 21 -49 9 -7 18 -30 21 -51 4 -21 15 -46 25 -55 11 -9 19 -29 19 -44 0 -15 11 -44 25 -64 14 -20 25 -49 25 -65 0 -15 8 -36 19 -45 10 -9 21 -32 24 -52 3 -19 15 -46 26 -61 12 -14 21 -38 21 -53 0 -15 9 -35 20 -45 10 -9 22 -37 26 -62 3 -25 13 -47 20 -50 7 -3 16 -21 20 -41 4 -21 16 -47 27 -59 19 -21 30 -23 120 -23 95 0 100 1 127 28 15 15 31 44 35 62 4 19 15 46 25 60 9 14 20 42 23 64 3 21 13 46 21 55 8 9 19 35 25 57 6 23 18 47 26 54 8 7 15 21 15 31 0 10 11 39 25 65 14 26 25 57 25 69 0 12 9 34 20 48 11 14 20 32 20 40 0 8 11 35 25 61 14 26 25 53 25 59 0 7 9 30 20 52 11 22 20 44 20 49 0 6 12 36 26 66 97 208 100 200 -59 200 l-110 0 -33 -35 c-25 -25 -34 -43 -34 -68 0 -20 -9 -46 -21 -61 -12 -15 -23 -44 -26 -65 -5 -33 -11 -41 -48 -60 -60 -30 -235 -31 -300 -1 -47 22 -75 53 -75 85 0 11 -9 31 -20 45 -11 14 -20 33 -20 42 0 31 -32 98 -51 108 -23 13 -229 13 -249 0z m612 -553 c15 -23 8 -58 -18 -93 -30 -39 -43 -41 -74 -16 -32 26 -32 88 0 114 26 21 77 19 92 -5z"/>
 <path d="M4430 3564 c-40 -16 -40 -20 -40 -551 0 -456 2 -516 16 -538 l16 -25 404 0 c311 0 405 3 411 13 4 6 9 172 11 367 2 391 1 403 -53 408 -85 7 -95 12 -95 42 0 16 11 42 25 58 14 17 25 34 25 39 0 6 9 18 20 28 11 10 20 24 20 30 0 7 7 18 16 26 8 7 24 30 35 51 l20 38 -26 10 c-34 13 -301 13 -325 0 -15 -8 -85 -106 -114 -160 -15 -27 -63 -52 -86 -45 -18 6 -20 15 -20 100 0 63 -4 96 -12 101 -15 10 -227 16 -248 8z m524 -597 c20 -15 32 -103 22 -170 -6 -39 -11 -47 -38 -56 -47 -17 -184 -14 -218 4 -30 15 -30 16 -30 105 0 125 6 130 143 130 68 0 109 -4 121 -13z"/>
 <path d="M5441 3556 c-8 -9 -10 -164 -9 -557 l3 -544 352 -3 352 -2 96 93 95 94 0 364 0 364 -101 103 -101 102 -338 0 c-273 0 -340 -3 -349 -14z m593 -281 l36 -15 0 -254 c0 -234 -1 -254 -19 -270 -27 -25 -299 -26 -336 -2 l-25 16 0 255 0 255 33 14 c46 21 262 21 311 1z"/>
 <path d="M7285 3561 l-30 -6 0 -555 0 -555 478 -3 c274 -1 485 2 495 7 15 8 17 26 16 126 0 89 -4 119 -15 126 -8 5 -143 9 -301 9 l-287 0 -20 26 c-20 25 -21 39 -21 256 0 139 4 237 10 249 10 18 23 19 185 19 161 0 174 -1 180 -19 10 -31 -12 -70 -42 -77 -15 -3 -33 -7 -40 -9 -15 -5 -25 -75 -21 -145 l3 -55 220 0 220 0 0 305 0 305 -500 1 c-275 1 -513 -1 -530 -5z"/>
 <path d="M8515 3563 c-35 -9 -38 -20 -16 -56 11 -19 21 -41 21 -50 0 -8 11 -38 25 -65 14 -28 25 -55 25 -61 0 -6 9 -25 20 -43 11 -18 20 -43 20 -54 0 -12 9 -32 19 -46 11 -13 23 -38 26 -54 7 -30 23 -69 68 -165 15 -31 27 -65 27 -76 0 -11 9 -28 19 -37 10 -10 22 -34 26 -54 4 -20 15 -51 26 -68 10 -17 19 -39 19 -49 0 -9 8 -28 19 -41 10 -13 22 -40 25 -59 4 -20 20 -57 35 -83 l27 -47 115 0 114 0 13 40 c7 22 19 47 27 55 8 9 18 32 21 51 4 19 14 43 24 54 10 11 20 38 23 59 4 22 13 43 21 48 8 4 17 26 21 48 4 22 15 50 24 62 10 13 21 39 25 59 3 20 15 44 26 54 12 11 20 31 20 50 0 19 8 39 19 49 10 9 21 34 25 55 3 21 15 50 26 64 11 14 20 37 20 51 0 14 8 33 19 43 10 10 21 35 24 56 3 20 15 49 26 64 12 14 21 38 21 54 0 16 9 37 21 48 13 12 19 26 16 35 -5 13 -26 16 -117 16 -129 0 -180 -15 -180 -52 0 -13 -9 -41 -20 -63 -11 -22 -20 -43 -20 -48 0 -4 -11 -32 -25 -60 -34 -72 -70 -87 -211 -87 -119 0 -194 23 -194 60 0 10 -7 23 -16 28 -10 6 -20 31 -25 63 -5 30 -15 59 -23 65 -8 5 -18 23 -22 40 -12 52 -18 54 -138 53 -61 -1 -120 -3 -131 -6z m584 -542 c18 -11 19 -94 2 -114 -17 -21 -60 -30 -77 -16 -17 14 -19 110 -2 127 14 14 57 16 77 3z"/>
 <path d="M11150 3561 l-25 -7 -5 -544 c-3 -307 -1 -550 4 -558 7 -9 107 -12 465 -10 l456 3 0 130 0 130 -290 3 c-284 2 -289 3 -313 25 -22 20 -24 28 -20 104 1 45 7 85 11 90 5 4 71 9 147 11 100 3 142 7 150 17 6 8 10 42 8 82 l-3 68 -148 5 c-169 6 -167 4 -167 92 0 49 3 59 23 70 16 9 102 14 312 18 l290 5 0 135 0 135 -435 2 c-239 0 -446 -2 -460 -6z"/>
 <path d="M9795 3548 c-3 -7 -4 -256 -3 -553 l3 -540 147 -3 c172 -3 189 3 207 72 6 24 17 48 25 55 8 6 17 27 20 45 4 19 13 37 21 40 8 3 17 21 20 40 4 19 16 42 26 52 10 9 19 28 19 41 0 13 9 31 20 41 11 9 23 34 27 55 3 21 12 41 19 44 20 8 84 -49 84 -74 0 -13 9 -32 19 -42 11 -11 23 -37 27 -58 4 -21 15 -46 25 -56 11 -10 19 -28 19 -41 0 -13 9 -31 20 -41 11 -10 22 -33 26 -51 3 -19 10 -37 15 -40 5 -3 18 -23 29 -45 l21 -39 162 2 162 3 0 550 0 550 -144 3 c-94 2 -148 -1 -155 -8 -7 -7 -11 -58 -11 -128 -1 -105 -3 -121 -25 -160 -28 -50 -50 -51 -66 -3 -6 18 -18 38 -27 43 -10 5 -17 18 -17 29 0 11 -11 30 -25 43 -14 13 -25 28 -25 33 0 5 -9 18 -20 28 -11 10 -20 26 -20 35 0 43 -69 74 -79 35 -4 -11 -25 -46 -48 -77 -24 -31 -43 -60 -43 -64 0 -15 -64 -100 -92 -123 -46 -37 -52 -21 -58 157 l-5 157 -148 3 c-112 2 -149 0 -152 -10z"/>
 <path d="M7716 2252 c-220 -1 -404 -6 -410 -11 -7 -6 -9 -42 -6 -103 l5 -93 271 -5 c209 -4 275 -8 287 -19 12 -10 17 -30 17 -70 0 -47 -4 -61 -23 -79 -23 -21 -30 -22 -285 -22 -168 0 -263 -4 -267 -10 -10 -16 -5 -654 4 -663 13 -13 223 -16 239 -4 9 7 12 60 12 203 l0 194 36 15 c24 10 69 15 130 15 89 0 127 -9 146 -35 4 -5 8 -94 8 -196 0 -138 3 -189 13 -195 6 -5 64 -9 127 -9 l115 0 0 544 c0 356 -3 545 -10 545 -5 1 -190 0 -409 -2z"/>
 <path d="M1015 2241 c-6 -6 -8 -200 -5 -538 l5 -528 425 0 425 0 0 440 0 440 -282 5 c-168 3 -286 9 -292 15 -6 6 -11 46 -13 90 l-3 80 -125 3 c-72 1 -130 -2 -135 -7z m603 -421 c21 -28 22 -39 22 -219 0 -236 12 -221 -180 -221 -201 0 -180 -25 -180 221 0 267 -13 249 178 249 l138 0 22 -30z"/>
 <path d="M2027 2244 c-12 -12 -8 -1062 3 -1069 6 -4 198 -6 427 -6 326 0 419 3 429 13 10 10 13 99 15 378 l2 365 -71 6 c-39 4 -75 10 -81 13 -19 12 -13 71 9 91 11 10 20 24 20 31 0 7 11 26 25 42 14 17 25 35 25 40 0 6 7 15 16 20 19 10 46 67 37 76 -4 3 -83 6 -177 6 l-171 0 -32 -34 c-18 -18 -33 -38 -33 -43 0 -5 -9 -18 -19 -27 -11 -10 -22 -27 -25 -39 -4 -12 -22 -32 -41 -44 -49 -31 -60 -13 -61 96 l0 86 -145 3 c-80 1 -148 -1 -152 -4z m573 -584 c13 -20 13 -176 0 -201 -10 -17 -22 -19 -129 -19 -89 0 -121 3 -130 14 -16 19 -25 105 -17 161 9 60 23 65 159 62 83 -1 110 -5 117 -17z"/>
 <path d="M3067 2243 c-11 -10 -8 -192 3 -214 6 -10 21 -19 34 -19 13 0 37 -7 54 -15 25 -13 32 -24 37 -58 9 -60 2 -484 -8 -494 -5 -4 -34 -10 -65 -13 l-57 -5 -3 -119 c-1 -67 2 -124 7 -129 12 -12 511 -11 523 1 5 5 7 62 6 128 l-3 119 -50 5 c-27 3 -56 9 -62 13 -10 6 -13 70 -13 262 l0 254 28 26 c15 14 38 28 52 31 14 3 31 7 38 10 9 3 12 30 10 111 l-3 108 -261 3 c-143 1 -263 -1 -267 -5z"/>
 <path d="M4117 2243 c-2 -5 -7 -21 -11 -38 -4 -16 -13 -37 -20 -45 -8 -8 -16 -39 -19 -69 -4 -30 -13 -62 -22 -71 -9 -9 -20 -43 -25 -75 -5 -32 -16 -67 -24 -80 -8 -12 -17 -43 -21 -68 -4 -26 -15 -57 -25 -70 -9 -12 -20 -48 -23 -80 -3 -36 -12 -63 -21 -70 -9 -7 -19 -38 -24 -75 -5 -35 -15 -68 -24 -75 -9 -7 -18 -35 -21 -71 -3 -33 -13 -66 -22 -76 -22 -24 -32 -95 -14 -105 7 -5 64 -9 127 -9 114 -1 115 -1 138 27 13 16 26 38 28 50 15 80 34 147 72 257 9 25 20 69 24 98 5 29 15 63 23 76 9 13 19 39 22 59 7 38 27 61 62 71 19 6 25 2 33 -19 5 -14 10 -43 10 -63 0 -24 7 -43 19 -53 11 -10 21 -37 25 -69 4 -29 16 -64 27 -78 11 -15 19 -40 19 -64 0 -24 8 -50 19 -64 11 -14 23 -50 27 -80 3 -31 12 -58 20 -61 7 -2 16 -19 20 -36 3 -18 10 -37 15 -43 11 -13 247 -10 261 4 13 13 -7 114 -32 162 -10 19 -21 57 -25 84 -3 26 -15 62 -26 80 -10 17 -19 44 -19 59 0 15 -8 44 -19 65 -10 20 -21 55 -25 77 -4 22 -13 56 -20 75 -24 62 -64 194 -72 235 -4 22 -13 49 -21 61 -7 11 -18 47 -24 80 -17 95 -15 94 -215 94 -95 0 -175 -3 -177 -7z"/>
 <path d="M4986 2242 c-3 -5 3 -17 14 -27 11 -10 20 -30 20 -45 0 -15 9 -35 19 -44 10 -10 22 -34 26 -54 4 -20 15 -48 24 -62 10 -14 21 -41 25 -61 4 -21 13 -42 21 -49 8 -7 17 -28 21 -49 4 -20 15 -47 25 -60 11 -13 19 -34 19 -46 0 -12 9 -34 21 -49 12 -15 23 -44 26 -66 3 -22 14 -47 24 -56 11 -9 19 -27 19 -40 0 -13 11 -40 25 -60 14 -20 25 -51 25 -68 0 -19 8 -38 19 -48 10 -9 22 -35 26 -58 4 -23 13 -44 21 -47 7 -3 16 -20 20 -39 3 -19 11 -37 17 -41 14 -8 185 -12 216 -4 16 5 28 18 34 37 5 16 16 36 23 45 8 8 17 31 20 50 4 19 15 43 24 54 10 11 20 36 24 56 4 21 13 43 21 49 9 7 18 30 22 52 3 22 14 47 23 56 9 10 20 34 23 56 3 21 13 46 21 55 8 9 19 36 25 59 5 24 16 51 24 60 8 9 18 33 22 52 4 19 16 46 26 59 11 13 19 34 19 46 0 12 9 33 19 47 11 13 22 41 26 61 4 20 16 48 26 61 11 13 19 33 19 45 0 11 10 29 22 41 37 34 13 41 -138 38 l-139 -3 -7 -47 c-3 -26 -16 -60 -27 -74 -12 -15 -21 -40 -21 -55 0 -17 -9 -37 -20 -46 -11 -10 -20 -23 -20 -29 0 -17 -128 -28 -253 -22 -106 5 -127 16 -127 61 0 10 -9 30 -20 44 -11 14 -20 34 -20 44 0 20 -13 51 -38 94 l-19 30 -141 3 c-77 1 -143 -1 -146 -6z m633 -540 c6 -12 4 -33 -7 -67 -16 -47 -19 -50 -47 -47 -16 2 -36 10 -42 19 -14 18 -18 95 -6 106 3 4 26 7 49 7 31 0 46 -5 53 -18z"/>
 <path d="M6307 2243 c-11 -11 -8 -1061 3 -1068 15 -9 781 -8 791 2 11 11 14 232 3 243 -5 5 -125 10 -266 12 -194 2 -260 6 -270 16 -10 10 -13 72 -13 267 0 139 4 257 8 262 5 4 129 10 275 13 l267 5 5 115 c3 63 1 121 -4 128 -6 9 -98 12 -401 12 -215 0 -395 -3 -398 -7z"/>
 </g>

</svg>