<?xml version="1.0" encoding="utf-8"?>
<!-- Generator: Adobe Illustrator 21.0.0, SVG Export Plug-In . SVG Version: 6.00 Build 0)  -->
<svg version="1.1" id="Camada_1" xmlns="http://www.w3.org/2000/svg" xmlns:xlink="http://www.w3.org/1999/xlink" x="0px" y="0px"
	 viewBox="0 0 240 60" style="enable-background:new 0 0 240 60;" xml:space="preserve">
<style type="text/css">
	.st0{fill:#FFFFFF;}
	.st1{fill:#FCFCFC;}
</style>
<g>
	<g>
		<path class="st0" d="M23.1,4.9v19.3H10.4v4.3H4V4.9H23.1z M17.2,19v-8.8h-6.9V19H17.2z"/>
		<path class="st0" d="M40.6,21.8l4.6,6.7h-8.7l-3.9-5.2v5.2h-6.9V5h18.8v16.8H40.6z M37.8,15.8v-4.1h-5.2v4.1H37.8z"/>
		<path class="st0" d="M59.4,28.4H47v-6h2.8V11.2H47V4.9h12.4v6.2h-2.8v11.3h2.8V28.4z"/>
		<path class="st0" d="M77.5,28.5h-8.1L61.9,4.9h7l4.3,14.5L78,4.9h7L77.5,28.5z"/>
		<path class="st0" d="M112.7,28.5H106l-2.4-6h-6.9l-2.4,6h-7.1L97.2,5h5.5L112.7,28.5z M100.1,13.7l-1.3,2.9h2.4L100.1,13.7z"/>
		<path class="st0" d="M133,28.5h-18.1V5H133v6.5h-11.8v10.6H133V28.5z"/>
		<path class="st0" d="M154.4,5v23.5h-18.6v-5.5H148v-2.8h-12.3V5h6.4v9h5.9V5H154.4z"/>
		<path class="st0" d="M20.5,42.7h2V55H4V31.5h16.5V42.7z M9.7,36.1V39h3.9v-2.9H9.7z M15.6,49.8v-4.6H9.7v4.6H15.6z"/>
		<path class="st0" d="M25,31.5h20.4V55H25V31.5z M31.9,38.2v10.3h6.7V38.2H31.9z"/>
		<path class="st0" d="M73,55h-6.7l-2.4-6H57l-2.4,6h-7.1l10-23.5H63L73,55z M60.5,40.3l-1.3,2.9h2.4L60.5,40.3z"/>
		<path class="st0" d="M90,48.3l4.6,6.7h-8.7L82,49.8V55h-6.9V31.5h18.8v16.8H90z M87.2,42.3v-4.1H82v4.1H87.2z"/>
		<path class="st0" d="M112.1,55.1H96.5V31.6h15.7l4.6,4.6v14.4L112.1,55.1z M103,48.6h7.4V38.1H103V48.6z"/>
		<path class="st0" d="M158.2,55h-23.3V31.4h21.9v6.2h-13.6v10.8h6.8v-1.4h-2.3v-5.4h10.5V55z"/>
		<path class="st0" d="M185.8,55h-6.7l-2.4-6h-6.9l-2.4,6h-7.1l10-23.5h5.5L185.8,55z M173.3,40.3l-1.3,2.9h2.4L173.3,40.3z"/>
		<path class="st0" d="M213.4,31.5v23.4h-7.7v-7.5l-5.1,7.7l-5.2-7.7v7.5h-7.5V31.5h7.5l5.2,10.8l5.1-10.8H213.4z"/>
		<path class="st0" d="M215.9,31.4H236v6.4h-12.9v3.8h6.6V46h-6.7v2.6H236V55h-20.1V31.4z"/>
	</g>
	<g>
		<path class="st1" d="M23.1,4.9v19.3H10.4v4.3H4V4.9H23.1z M17.2,19v-8.8h-6.9V19H17.2z"/>
		<path class="st1" d="M40.6,21.8l4.6,6.7h-8.7l-3.9-5.2v5.2h-6.9V5h18.8v16.8H40.6z M37.8,15.8v-4.1h-5.2v4.1H37.8z"/>
		<path class="st1" d="M59.4,28.4H47v-6h2.8V11.2H47V4.9h12.4v6.2h-2.8v11.3h2.8V28.4z"/>
		<path class="st1" d="M77.5,28.5h-8.1L61.9,4.9h7l4.3,14.5L78,4.9h7L77.5,28.5z"/>
		<path class="st1" d="M112.7,28.5H106l-2.4-6h-6.9l-2.4,6h-7.1L97.2,5h5.5L112.7,28.5z M100.1,13.7l-1.3,2.9h2.4L100.1,13.7z"/>
		<path class="st1" d="M133,28.5h-18.1V5H133v6.5h-11.8v10.6H133V28.5z"/>
		<path class="st1" d="M154.4,5v23.5h-18.6v-5.5H148v-2.8h-12.3V5h6.4v9h5.9V5H154.4z"/>
		<path class="st1" d="M20.5,42.7h2V55H4V31.5h16.5V42.7z M9.7,36.1V39h3.9v-2.9H9.7z M15.6,49.8v-4.6H9.7v4.6H15.6z"/>
		<path class="st1" d="M25,31.5h20.4V55H25V31.5z M31.9,38.2v10.3h6.7V38.2H31.9z"/>
		<path class="st1" d="M73,55h-6.7l-2.4-6H57l-2.4,6h-7.1l10-23.5H63L73,55z M60.5,40.3l-1.3,2.9h2.4L60.5,40.3z"/>
		<path class="st1" d="M90,48.3l4.6,6.7h-8.7L82,49.8V55h-6.9V31.5h18.8v16.8H90z M87.2,42.3v-4.1H82v4.1H87.2z"/>
		<path class="st1" d="M112.1,55.1H96.5V31.6h15.7l4.6,4.6v14.4L112.1,55.1z M103,48.6h7.4V38.1H103V48.6z"/>
		<path class="st1" d="M158.2,55h-23.3V31.4h21.9v6.2h-13.6v10.8h6.8v-1.4h-2.3v-5.4h10.5V55z"/>
		<path class="st1" d="M185.8,55h-6.7l-2.4-6h-6.9l-2.4,6h-7.1l10-23.5h5.5L185.8,55z M173.3,40.3l-1.3,2.9h2.4L173.3,40.3z"/>
		<path class="st1" d="M213.4,31.5v23.4h-7.7v-7.5l-5.1,7.7l-5.2-7.7v7.5h-7.5V31.5h7.5l5.2,10.8l5.1-10.8H213.4z"/>
		<path class="st1" d="M215.9,31.4H236v6.4h-12.9v3.8h6.6V46h-6.7v2.6H236V55h-20.1V31.4z"/>
	</g>
</g>
</svg>
