<?xml version="1.0" encoding="utf-8"?>
<!-- Generator: Adobe Illustrator 21.0.0, SVG Export Plug-In . SVG Version: 6.00 Build 0)  -->
<svg version="1.1" id="Camada_2" xmlns="http://www.w3.org/2000/svg" xmlns:xlink="http://www.w3.org/1999/xlink" x="0px" y="0px"
	 viewBox="0 0 800 38" style="enable-background:new 0 0 800 38;" xml:space="preserve">
<style type="text/css">
	.st0{fill:url(#SVGID_1_);}
	.st1{fill:#FFFFFF;}
</style>
<g>
	<g id="Layer_2">
		<g id="Blue">
			
				<linearGradient id="SVGID_1_" gradientUnits="userSpaceOnUse" x1="660.3586" y1="20.4671" x2="655.882" y2="12.7132" gradientTransform="matrix(1 0 0 -1 0 40)">
				<stop  offset="0" style="stop-color:#FFFFFF;stop-opacity:0.4"/>
				<stop  offset="0.923" style="stop-color:#FFFFFF"/>
			</linearGradient>
			<path class="st0" d="M658,18.2c-0.2-0.2-0.5-0.3-0.7-0.1c-0.1,0-0.1,0.1-0.1,0.2l-4.2,8.5c-0.1,0.3,0,0.6,0.2,0.7
				c0.1,0,0.1,0.1,0.2,0.1h5.9c0.2,0,0.4-0.1,0.5-0.3C661,24.6,660.3,20.6,658,18.2z"/>
			<path class="st1" d="M661.1,10.5c-2.2,3.3-2.4,7.5-0.7,11l2.8,5.7c0.1,0.2,0.3,0.3,0.5,0.3h5.9c0.3,0,0.5-0.2,0.5-0.5
				c0-0.1,0-0.2-0.1-0.2c0,0-7.9-15.9-8.1-16.3c-0.1-0.2-0.4-0.3-0.6-0.2C661.3,10.3,661.2,10.4,661.1,10.5z"/>
			<path class="st1" d="M730.4,17.3c0,2.1,1,3.8,4.8,4.5c2.3,0.5,2.7,0.8,2.7,1.6c0,0.7-0.5,1.2-2.1,1.2c-1.9,0-3.8-0.5-5.5-1.5v3.4
				c1.1,0.6,2.7,1.2,5.5,1.2c4,0,5.6-1.8,5.6-4.4 M741.4,23.3c0-2.5-1.3-3.7-5-4.5c-2.1-0.5-2.6-0.9-2.6-1.6c0-0.8,0.7-1.2,2.1-1.2
				c1.6,0,3.3,0.5,4.8,1.2v-3.3c-1.5-0.7-3.1-1-4.7-1c-3.7,0-5.6,1.6-5.6,4.2"/>
			<polygon class="st1" points="781.6,13.3 781.6,27.5 784.6,27.5 784.6,16.7 785.9,19.6 790.2,27.5 794,27.5 794,13.3 791,13.3 
				791,22.5 789.8,19.8 786.4,13.3 			"/>
			<rect x="759" y="13.3" class="st1" width="3.3" height="14.2"/>
			<path class="st1" d="M755.2,23.3c0-2.5-1.3-3.7-5-4.5c-2.1-0.5-2.6-0.9-2.6-1.6c0-0.8,0.7-1.2,2.1-1.2c1.6,0,3.3,0.5,4.8,1.2
				v-3.3c-1.5-0.7-3.1-1-4.7-1c-3.7,0-5.6,1.6-5.6,4.2c0,2.1,1,3.8,4.8,4.5c2.3,0.5,2.7,0.8,2.7,1.6c0,0.7-0.5,1.2-2.1,1.2
				c-1.9,0-3.8-0.5-5.5-1.5v3.4c1.1,0.6,2.7,1.2,5.5,1.2C753.6,27.8,755.2,26,755.2,23.3"/>
			<polygon class="st1" points="704.7,13.3 704.7,27.5 711.5,27.5 712.6,24.5 708,24.5 708,13.3 			"/>
			<polygon class="st1" points="691.2,13.3 691.2,16.4 694.9,16.4 694.9,27.5 698.2,27.5 698.2,16.4 702.2,16.4 702.2,13.3 			"/>
			<path class="st1" d="M686.4,13.3H682l-5,14.2h3.8l0.7-2.4c1.7,0.5,3.6,0.5,5.3,0l0.7,2.4h3.8L686.4,13.3z M684.2,22.6
				c-0.6,0-1.2-0.1-1.8-0.3l1.8-6.2l1.8,6.2C685.4,22.5,684.8,22.6,684.2,22.6z"/>
			<path class="st1" d="M723.2,13.3h-4.4l-5,14.2h3.8l0.7-2.4c1.7,0.5,3.6,0.5,5.3,0l0.7,2.4h3.8L723.2,13.3z M721,22.6
				c-0.6,0-1.2-0.1-1.8-0.3l1.8-6.2l1.8,6.2C722.3,22.5,721.7,22.6,721,22.6z"/>
			<path class="st1" d="M774.3,13.3h-4.4l-5,14.2h3.8l0.7-2.4c1.7,0.5,3.6,0.5,5.3,0l0.7,2.4h3.8L774.3,13.3z M772.1,22.6
				c-0.6,0-1.2-0.1-1.8-0.3l1.8-6.2l1.8,6.2C773.3,22.5,772.7,22.6,772.1,22.6z"/>
		</g>
	</g>
	
		<image style="overflow:visible;" width="155" height="37" xlink:href="../../../logo_small_light.png"  transform="matrix(0.6656 0 0 0.6656 487.0349 6.6863)">
	</image>
	<g id="Page-1">
		<g id="Homepage---Version-1" transform="translate(-73.000000, -42.000000)">
			<g id="Header" transform="translate(73.000000, 42.000000)">
				<g id="Logo">
					<path id="Fill-1" class="st1" d="M328.8,14.9h-1.4c-0.2,0-0.4-0.2-0.4-0.4v-3.6c0-0.2-0.2-0.4-0.4-0.4h-2.2
						c-0.2,0-0.4,0.2-0.4,0.4v3.6c0,0.2-0.2,0.4-0.4,0.4H322c-0.2,0-0.4,0.2-0.4,0.4V17c0,0.2,0.2,0.4,0.4,0.4h1.6
						c0.2,0,0.4,0.2,0.4,0.4v7.9c0,2.3,1.5,3.5,3.6,3.5h1.2c0.2,0,0.4-0.2,0.4-0.4v-1.9c0-0.2-0.2-0.4-0.4-0.4h0h-0.7
						c-0.8,0-1.1-0.6-1.1-1.4v-7.4c0-0.2,0.2-0.4,0.4-0.4h1.4c0.2,0,0.4-0.2,0.4-0.4v-1.7C329.2,15,329,14.9,328.8,14.9L328.8,14.9z
						 M425.3,28.5l-4.5-6.4c-0.1-0.1-0.1-0.3,0-0.5l4.3-6.1c0.2-0.3,0-0.7-0.4-0.7h-2.5c-0.2,0-0.3,0.1-0.4,0.2l-2.5,3.9
						c-0.2,0.3-0.6,0.3-0.8,0l-2.5-3.9c-0.1-0.1-0.2-0.2-0.4-0.2h-2.5c-0.4,0-0.6,0.4-0.4,0.7l4.3,6.1c0.1,0.1,0.1,0.3,0,0.5
						l-4.5,6.4c-0.2,0.3,0,0.7,0.4,0.7h2.5c0.2,0,0.3-0.1,0.4-0.2l2.7-4.1c0.2-0.3,0.6-0.3,0.8,0l2.7,4.1c0.1,0.1,0.2,0.2,0.4,0.2
						h2.5C425.3,29.2,425.5,28.8,425.3,28.5L425.3,28.5z M408.2,20.8h-5.5c-0.3,0-0.5-0.2-0.5-0.5c0.2-1.9,1.5-2.9,3.2-2.9
						c1.7,0,2.9,1,3.2,2.9C408.7,20.6,408.5,20.8,408.2,20.8L408.2,20.8z M405.5,14.7c-2.9,0-6.2,1.8-6.2,7.4c0,5.9,3.6,7.3,6.7,7.3
						c1.8,0,3.5-0.5,4.9-1.7c0.2-0.2,0.2-0.4,0-0.6l-1.3-1.4c-0.2-0.2-0.4-0.2-0.6,0c-0.9,0.7-2,1.1-3,1.1c-1.3,0-2.5-0.5-3.1-1.5
						c-0.3-0.5-0.5-1-0.5-1.7c0-0.3,0.2-0.5,0.4-0.5h8.5c0.2,0,0.5-0.2,0.5-0.4V21C411.7,17.1,408.8,14.7,405.5,14.7L405.5,14.7z
						 M397.8,9h-1.5c-2.3,0-4.1,1.2-4.1,3.9v1.5c0,0.2-0.2,0.4-0.4,0.4h-1.5c-0.2,0-0.4,0.2-0.4,0.4v1.6c0,0.2,0.2,0.4,0.4,0.4h1.5
						c0.2,0,0.4,0.2,0.4,0.4v11c0,0.2,0.2,0.4,0.4,0.4h2.1c0.2,0,0.4-0.2,0.4-0.4v-11c0-0.2,0.2-0.4,0.4-0.4h2.1
						c0.2,0,0.4-0.2,0.4-0.4v-1.6c0-0.2-0.2-0.4-0.4-0.4h-2.1c-0.2,0-0.4-0.2-0.4-0.4v-1.2c0-0.9,0.3-1.5,1.3-1.5h1.3
						c0.2,0,0.4-0.2,0.4-0.4V9.5C398.2,9.2,398,9,397.8,9L397.8,9z M386.6,8.6L386.6,8.6c-1.1,0-2,0.8-2,1.9s0.9,1.9,1.9,1.9h0
						c1.1,0,1.9-0.8,1.9-1.9S387.6,8.6,386.6,8.6L386.6,8.6z M387.5,14.9h-1.8c-0.3,0-0.6,0.2-0.6,0.6v13.2c0,0.3,0.3,0.6,0.6,0.6
						h1.8c0.3,0,0.6-0.3,0.6-0.6V15.4C388.1,15.1,387.8,14.9,387.5,14.9L387.5,14.9z M379.2,20.9c-0.6-0.1-1.2-0.2-1.9-0.3
						c-0.6-0.1-1.3-0.1-2-0.1c-1.5-0.1-2-0.7-2-1.4c0-1,0.7-1.8,2.6-1.8c1.5,0,2.6,0.4,3.6,1.1c0.2,0.1,0.5,0.1,0.7-0.1l1.1-1.5
						c0.2-0.2,0.1-0.5-0.1-0.7c-1.4-1-3-1.5-5.3-1.5c-3.1,0-5.6,1.5-5.6,4.4c0,2.2,1.5,3.5,3.7,4c1.1,0.2,2.2,0.1,3.3,0.2
						c1.1,0.2,1.9,0.5,1.9,1.5c0,1.2-1.3,1.9-3,1.9c-1.9,0-3.2-0.5-4.4-1.5c-0.2-0.2-0.5-0.2-0.7,0l-1.2,1.4
						c-0.2,0.2-0.1,0.5,0.1,0.7c1.8,1.4,3.8,2.1,6,2.1c3.5,0,6.2-1.7,6.2-4.4C382.3,22.4,381,21.4,379.2,20.9L379.2,20.9z
						 M363.1,14.7c-1.7,0-3,0.5-3.9,1.7c0,0-0.1,0.1-0.1,0v-1c0-0.3-0.2-0.5-0.5-0.5h-1.9c-0.3,0-0.5,0.2-0.5,0.5v13.3
						c0,0.3,0.2,0.5,0.5,0.5h1.9c0.3,0,0.5-0.2,0.5-0.5v-8c0-2,1.3-3.1,3-3.1c1.7,0,3,1.1,3,3.1v8c0,0.3,0.2,0.5,0.5,0.5h1.9
						c0.3,0,0.5-0.2,0.5-0.5v-9C368.1,16.4,365.4,14.7,363.1,14.7L363.1,14.7z M350.8,24.2c0,0.8-0.2,1.4-0.6,1.8
						c-0.5,0.5-1.5,0.7-2.9,0.7c-2.1,0-2.9-0.8-2.9-1.9c0-1.1,0.8-1.8,2.7-1.8h3.7V24.2z M352,15.7c-1.1-0.7-2.6-1-4.5-1
						c-1.9,0-3.4,0.5-4.5,1.5c-0.2,0.2-0.2,0.5,0,0.7l1.3,1.2c0.2,0.2,0.5,0.2,0.7,0c0.5-0.5,1.4-0.7,2.7-0.7c2.2,0,3.1,0.5,3.1,1.9
						v1.6h-1.2h-3c-3.2,0-4.9,1.9-4.9,4.2c0,1.5,0.7,2.7,1.9,3.5c0.9,0.6,2,0.9,3.4,0.9c2.1,0,3.3-0.8,3.7-1.4
						c0.1-0.1,0.1-0.1,0.1,0v0.8c0,0.3,0.2,0.5,0.5,0.5h2c0.3,0,0.5-0.2,0.5-0.5v-9.4C353.7,17.6,353.1,16.5,352,15.7L352,15.7z
						 M341.4,15.4c-0.8-0.4-1.6-0.7-2.5-0.7c-1.7,0-3,0.6-3.9,1.7h-0.1v-1.1c0-0.2-0.2-0.4-0.4-0.4h-2.1c-0.2,0-0.4,0.2-0.4,0.4
						v13.5c0,0.2,0.2,0.4,0.4,0.4h2.1c0.2,0,0.4-0.2,0.4-0.4v-8.2c0-2.2,1.5-3,3-3c0.7,0,1.1,0.1,1.7,0.5c0.2,0.1,0.5,0.1,0.6-0.1
						l1.4-1.9C341.6,15.8,341.6,15.5,341.4,15.4L341.4,15.4z"/>
				</g>
			</g>
		</g>
	</g>
	<g>
		<g>
			<path class="st1" d="M6,8.9h3.5v16.1H6V8.9z"/>
			<path class="st1" d="M20.2,25.1h-3.5V12.3H12V8.9h12.8v3.4h-4.6V25.1z"/>
			<path class="st1" d="M27.3,8.9h3.5v16.1h-3.5V8.9z"/>
			<path class="st1" d="M40.3,8.9c5.7,0,7.9,4,7.9,8.1c0,3.7-2.1,8.1-8,8.1h-5.9V8.9H40.3z M44.6,17c0-2.3-1.2-4.8-3.7-4.8h-3v9.5
				h2.7C43.5,21.7,44.6,19.2,44.6,17z"/>
			<path class="st1" d="M50.8,10.2c0-1.1,0.9-1.9,1.9-1.9c1.1,0,1.9,0.8,1.9,1.9c0,1-0.8,1.9-1.9,1.9C51.7,12.1,50.8,11.3,50.8,10.2
				z M51.1,13.3h3.3v11.8h-3.3V13.3z"/>
			<path class="st1" d="M67.9,13.3V23c0,4.2-0.6,6.3-5.6,6.7l-1.9-2.9c3-0.3,4.1-0.4,4.1-2.2c-0.7,0.7-1.6,0.7-2.4,0.7
				c-2.9,0-4.9-2.1-4.9-6.2c0-3.8,2-6.2,4.9-6.2c0.9,0,1.7,0.1,2.4,0.8v-0.5H67.9z M64.6,17c-0.3-0.3-0.6-0.8-1.8-0.8
				c-1.3,0-2.1,1-2.1,2.9c0,1.7,0.6,3,2.1,3c1,0,1.4-0.2,1.8-0.7V17z"/>
			<path class="st1" d="M71.2,10.2c0-1.1,0.9-1.9,1.9-1.9c1.1,0,1.9,0.8,1.9,1.9c0,1-0.8,1.9-1.9,1.9C72,12.1,71.2,11.3,71.2,10.2z
				 M71.4,13.3h3.3v11.8h-3.3V13.3z"/>
			<path class="st1" d="M78.8,22.1v-5.9h-1.6v-2.9h1.6V10l3.3-1.6v4.9h2.6v2.9h-2.6v5.6c0,0.5,0.3,0.7,0.7,0.7c0.6,0,1.3-0.1,2-0.5
				l-0.4,2.8c-0.8,0.4-1.6,0.5-2.7,0.5C79.7,25.3,78.8,24.2,78.8,22.1z"/>
			<path class="st1" d="M94.1,24.2c-0.6,0.6-1.4,1.2-2.9,1.2c-2.5,0-4.4-1.3-4.4-3.9c0-2.6,2.4-3.8,4.8-3.8c1.2,0,1.9,0.1,2.6,0.4
				v-0.6c0-1.1-0.8-1.7-1.9-1.7c-1.3,0-2.5,0.4-3.8,1.2l-1-2.6c1.2-0.8,3-1.5,5.1-1.5c2.2,0,5,0.6,5,4.6v7.5h-3.3V24.2z M94.1,21.7
				v-1.1c-0.6-0.2-1.3-0.3-2-0.3c-1.2,0-2.1,0.3-2.1,1.1c0,0.6,0.6,1,1.8,1C92.8,22.5,93.5,22.1,94.1,21.7z"/>
			<path class="st1" d="M100.8,10l3.3-1.6v16.7h-3.3V10z"/>
		</g>
	</g>
	<g>
		<path class="st1" d="M201.4,17.6c-1.5,0-2.5,1.1-2.5,3.1c0,1.8,0.8,3.2,2.5,3.2c1.6,0,2.6-1.3,2.6-3.3
			C203.9,18.6,202.8,17.6,201.4,17.6z"/>
		<path class="st1" d="M242.5,22.9c0,0.7,0.3,1.2,1.2,1.2c1.1,0,2.2-0.8,2.3-2.5c-0.5-0.1-1-0.1-1.5-0.1
			C243.5,21.5,242.5,21.8,242.5,22.9z"/>
		<path class="st1" d="M170.1,7v24H254V7H170.1z M194.6,26.1h-4.4v-6c0-1.8-0.7-2.5-1.9-2.5c-1.4,0-2.1,1-2.1,2.5v3.7h1.4v2.3h-4.2
			v-6c0-1.8-0.7-2.5-1.9-2.5c-1.4,0-2.1,1-2.1,2.5v3.7h2.1v2.3H175v-2.3h1.4v-6.1H175v-2.1h4.4v1.5c0.7-1.1,1.7-1.8,3.2-1.8
			c1.5,0,2.9,0.7,3.4,2.3c0.6-1.4,1.8-2.3,3.5-2.3c1.9,0,3.7,1.1,3.7,3.6v4.8h1.4L194.6,26.1L194.6,26.1z M201.3,26.2
			c-3.2,0-5.5-2-5.5-5.3c0-3.1,1.9-5.6,5.6-5.6c3.8,0,5.6,2.5,5.6,5.5C207,24.1,204.6,26.2,201.3,26.2z M218.2,26.1H209l-0.3-1.7
			l5.8-6.7h-3.3l-0.5,1.7l-2.2-0.2l0.4-3.6h9.2l0.2,1.6l-5.8,6.6h3.4l0.5-1.7l2.4,0.3L218.2,26.1z M224.2,26.1h-3v-4h3V26.1z
			 M224.2,19.3h-3v-3.7h3V19.3z M226.1,26.1l4.5-16.1h3l-4.5,16.1H226.1z M232.2,26.1l4.5-16.1h3l-4.5,16.1H232.2z M248.3,26.2
			c-1.4,0-2.2-0.8-2.3-2.1c-0.6,1.1-1.7,2.1-3.4,2.1c-1.5,0-3.2-0.8-3.2-3c0-2.6,2.5-3.2,4.9-3.2c0.6,0,1.3,0,1.7,0.1v-0.3
			c0-1.1,0-2.4-1.7-2.4c-0.6,0-1.1,0-1.6,0.3l-0.3,1.2l-2.4-0.3l0.4-2.4c1.8-0.7,2.8-1,4.5-1c2.3,0,4.2,1.2,4.2,3.6v4.6
			c0,0.6,0.2,0.8,0.7,0.8c0.1,0,0.3,0,0.4-0.1l0,1.6C249.7,26.1,249,26.2,248.3,26.2z"/>
	</g>
</g>
</svg>
