<svg id="Camada_1" data-name="Camada 1" xmlns="http://www.w3.org/2000/svg" xmlns:xlink="http://www.w3.org/1999/xlink" viewBox="0 0 527 65.39"><defs><style>.cls-1{fill:url(#Gradiente_sem_nome_2);}.cls-2{fill:#fff;}</style><linearGradient id="Gradiente_sem_nome_2" x1="30.37" y1="81.01" x2="13.65" y2="52.05" gradientTransform="matrix(1, 0, 0, -1, 0, 132)" gradientUnits="userSpaceOnUse"><stop offset="0" stop-color="#fff" stop-opacity="0.4"/><stop offset="0.92" stop-color="#fff"/></linearGradient></defs><title>atlassian</title><g id="Layer_2" data-name="Layer 2"><g id="Blue"><path class="cls-1" d="M21.67,46.13a1.84,1.84,0,0,0-3.13.34L2.7,78.15a1.89,1.89,0,0,0,1.69,2.74H26.45a1.83,1.83,0,0,0,1.69-1C32.91,70,30,55.06,21.67,46.13Z" transform="translate(-2.5 -16.3)"/><path class="cls-2" d="M33.29,17.32a41.78,41.78,0,0,0-2.44,41.25L41.49,79.84a1.89,1.89,0,0,0,1.69,1H65.24a1.89,1.89,0,0,0,1.69-2.74L36.51,17.31a1.79,1.79,0,0,0-3.22,0Z" transform="translate(-2.5 -16.3)"/><path class="cls-2" d="M292,42.72c0,7.84,3.64,14.07,17.87,16.82,8.49,1.78,10.27,3.15,10.27,6s-1.78,4.53-7.76,4.53a43.81,43.81,0,0,1-20.62-5.58V77.25c4.29,2.1,9.95,4.45,20.46,4.45C327.1,81.7,333,75.06,333,65.2m0,0c0-9.3-4.93-13.67-18.84-16.66-7.68-1.7-9.54-3.4-9.54-5.82,0-3.07,2.75-4.37,7.84-4.37,6.15,0,12.21,1.86,18,4.45V30.59A40.58,40.58,0,0,0,312.87,27c-13.75,0-20.86,6-20.86,15.77" transform="translate(-2.5 -16.3)"/><polygon class="cls-2" points="480.66 11.45 480.66 64.58 491.98 64.58 491.98 24.07 496.76 34.82 512.77 64.58 527 64.58 527 11.45 515.68 11.45 515.68 45.74 511.39 35.8 498.54 11.45 480.66 11.45"/><rect class="cls-2" x="396.28" y="11.45" width="12.37" height="53.13"/><path class="cls-2" d="M384.51,65.2c0-9.3-4.93-13.67-18.84-16.66-7.68-1.7-9.54-3.4-9.54-5.82,0-3.07,2.75-4.37,7.84-4.37,6.15,0,12.21,1.86,18,4.45V30.59A40.58,40.58,0,0,0,364.37,27c-13.75,0-20.86,6-20.86,15.77,0,7.84,3.64,14.07,17.87,16.82,8.49,1.78,10.27,3.15,10.27,6s-1.78,4.53-7.76,4.53a43.81,43.81,0,0,1-20.62-5.58V77.25c4.29,2.1,9.95,4.45,20.46,4.45,14.88,0,20.78-6.64,20.78-16.5" transform="translate(-2.5 -16.3)"/><polygon class="cls-2" points="193.39 11.45 193.39 64.58 218.82 64.58 222.82 53.1 205.84 53.1 205.84 11.45 193.39 11.45"/><polygon class="cls-2" points="143.14 11.45 143.14 22.94 156.89 22.94 156.89 64.58 169.34 64.58 169.34 22.94 184.06 22.94 184.06 11.45 143.14 11.45"/><path class="cls-2" d="M127.59,27.76H111.27L92.74,80.89h14.15l2.63-8.95a35.17,35.17,0,0,0,19.82,0L132,80.89h14.15Zm-8.16,34.6a24.17,24.17,0,0,1-6.81-1l6.81-23.19,6.81,23.19A24.17,24.17,0,0,1,119.43,62.36Z" transform="translate(-2.5 -16.3)"/><path class="cls-2" d="M265.16,27.76H248.84L230.31,80.89h14.15l2.63-8.95a35.17,35.17,0,0,0,19.82,0l2.63,8.95h14.15ZM257,62.36a24.17,24.17,0,0,1-6.81-1L257,38.19l6.81,23.19A24.17,24.17,0,0,1,257,62.36Z" transform="translate(-2.5 -16.3)"/><path class="cls-2" d="M455.74,27.76H439.42L420.9,80.89H435l2.63-8.95a35.17,35.17,0,0,0,19.82,0l2.63,8.95h14.15Zm-8.16,34.6a24.17,24.17,0,0,1-6.81-1l6.81-23.19,6.81,23.19A24.17,24.17,0,0,1,447.58,62.36Z" transform="translate(-2.5 -16.3)"/></g></g></svg>