<svg id="Camada_1" data-name="Camada 1" xmlns="http://www.w3.org/2000/svg" viewBox="0 0 441.5 96.04"><defs><style>.cls-1{fill:#fff;}</style></defs><title>itidigital</title><path class="cls-1" d="M45.25,3.58H61V76.25H45.25Z" transform="translate(-45.25 -0.98)"/><path class="cls-1" d="M109,76.25H93.21V18.73H72.34V3.58h57.52V18.73H109Z" transform="translate(-45.25 -0.98)"/><path class="cls-1" d="M141.17,3.58h15.78V76.25H141.17Z" transform="translate(-45.25 -0.98)"/><path class="cls-1" d="M199.72,3.58c25.44,0,35.51,18.17,35.51,36.34,0,16.51-9.24,36.34-35.92,36.34H172.93V3.58Zm19.1,36.34c0-10.28-5.19-21.39-16.72-21.39H188.71V61.2H201C213.94,61.2,218.82,49.78,218.82,39.92Z" transform="translate(-45.25 -0.98)"/><path class="cls-1" d="M247.05,9.5A8.6,8.6,0,0,1,255.77,1a8.45,8.45,0,0,1,8.62,8.52,8.59,8.59,0,0,1-8.62,8.61A8.75,8.75,0,0,1,247.05,9.5Zm1.14,13.7h15.05V76.25H248.2Z" transform="translate(-45.25 -0.98)"/><path class="cls-1" d="M324,23.2V67c0,19.1-2.91,28.24-25,30l-8.62-12.87c13.39-1.14,18.48-1.87,18.58-10-3.22,3-7.27,3.32-10.59,3.32-13,0-22-9.34-22-27.82,0-17,9-27.72,22-27.72,4,0,7.47.62,10.59,3.53V23.2ZM308.93,39.92c-1.35-1.14-2.8-3.43-8.31-3.43-5.81,0-9.24,4.67-9.24,13.19,0,7.58,2.49,13.29,9.24,13.29,4.46,0,6.44-1,8.31-3.22Z" transform="translate(-45.25 -0.98)"/><path class="cls-1" d="M338.51,9.5A8.6,8.6,0,0,1,347.23,1a8.45,8.45,0,0,1,8.62,8.52,8.59,8.59,0,0,1-8.62,8.61A8.75,8.75,0,0,1,338.51,9.5Zm1.14,13.7H354.7V76.25H339.65Z" transform="translate(-45.25 -0.98)"/><path class="cls-1" d="M373,63V36.39H365.7V23.2H373V8.46l15-7.16V23.2h11.52V36.39H387.92V61.51a2.88,2.88,0,0,0,3,3,21.91,21.91,0,0,0,9.14-2.08l-1.66,12.67a27.1,27.1,0,0,1-12,2.39C376.92,77.5,373,72.31,373,63Z" transform="translate(-45.25 -0.98)"/><path class="cls-1" d="M441.7,72.31c-2.6,2.8-6.33,5.19-13.19,5.19-11.21,0-19.93-5.81-19.93-17.44s11-17,21.49-17c5.19,0,8.62.52,11.63,1.87V42c0-5-3.43-7.47-8.62-7.47-5.92,0-11.42,1.87-17,5.61L411.38,28.6A40.72,40.72,0,0,1,434.12,22c9.86,0,22.53,2.49,22.53,20.77V76.25h-15Zm0-11.21V56.32a31.17,31.17,0,0,0-9-1.25c-5.19,0-9.35,1.25-9.35,5.09,0,2.91,2.91,4.67,8.1,4.67A15.92,15.92,0,0,0,441.7,61.1Z" transform="translate(-45.25 -0.98)"/><path class="cls-1" d="M471.7,8.35l15.05-7.06v75H471.7Z" transform="translate(-45.25 -0.98)"/></svg>