<svg id="Camada_1" data-name="Camada 1" xmlns="http://www.w3.org/2000/svg" viewBox="0 0 330.76 94.63"><defs><style>.cls-1{fill:#fff;}</style></defs><title>mozilla</title><path class="cls-1" d="M223.92,43.58c-6.06,0-9.83,4.5-9.83,12.31,0,7.17,3.31,12.68,9.74,12.68,6.16,0,10.2-5,10.2-12.86C234,47.35,229.52,43.58,223.92,43.58Z" transform="translate(-100.62 -1.68)"/><path class="cls-1" d="M386.18,64.44c0,2.66,1.29,4.78,4.87,4.78,4.23,0,8.73-3,9-9.92a43.74,43.74,0,0,0-6-.55C389.85,58.74,386.18,59.93,386.18,64.44Z" transform="translate(-100.62 -1.68)"/><path class="cls-1" d="M100.62,1.68V96.32H431.38V1.68ZM197.09,77H179.63V53.41c0-7.17-2.66-9.92-7.35-9.92-5.7,0-8.27,4-8.27,9.83V67.84h5.51V77H153V53.41c0-7.17-2.66-9.92-7.35-9.92-5.7,0-8.27,4-8.27,9.83V67.84h8.27V77H119.91V67.84h5.51V43.95h-5.51V35.68h17.46v5.88A14.18,14.18,0,0,1,150,34.48c6,0,11.48,2.85,13.51,8.91a14.14,14.14,0,0,1,13.69-8.91c7.44,0,14.42,4.5,14.42,14.33v19h5.51V77Zm26.37.55c-12.77,0-21.59-7.81-21.59-21,0-12.13,7.35-22.14,22.23-22.14s22.14,10,22.14,21.59C246.25,69.21,236.69,77.57,223.46,77.57Zm66.7-.55H254.06l-1.19-6.62,22.79-26.46h-13l-1.84,6.62-8.54-.64,1.47-14.24h36.29l.92,6.16-23,26h13.41l1.93-6.52,9.37,1Zm23.61,0H301.83V61.4h11.94Zm0-26.64H301.83V35.68h11.94ZM321.59,77l17.82-63.4h11.67L333.16,77Zm24,0,17.92-63.4h11.67L357.24,77Zm63.58.55c-5.51,0-8.54-3.22-9.1-8.27-2.39,4.23-6.62,8.27-13.32,8.27-6,0-12.77-3.22-12.77-11.85,0-10.2,9.83-12.59,19.29-12.59a51.44,51.44,0,0,1,6.8.37V52.22c0-4.23-.09-9.28-6.8-9.28a12.85,12.85,0,0,0-6.34,1.19l-1.38,4.69-9.37-1,1.65-9.56c7.26-2.94,11-3.77,17.82-3.77,8.91,0,16.54,4.59,16.54,14.06v18c0,2.39.83,3.22,2.76,3.22a5.65,5.65,0,0,0,1.65-.28l.09,6.25A17.85,17.85,0,0,1,409.15,77.57Z" transform="translate(-100.62 -1.68)"/></svg>