<?xml version="1.0" encoding="UTF-8" standalone="no"?>
<svg width="85px" height="17px" viewBox="0 0 85 17" version="1.1" xmlns="http://www.w3.org/2000/svg" xmlns:xlink="http://www.w3.org/1999/xlink">
    <!-- Generator: Sketch 3.6.1 (26313) - http://www.bohemiancoding.com/sketch -->
    <title>Fill 1</title>
    <desc>Created with Sketch.</desc>
    <defs/>
    <g id="Page-1" stroke="none" stroke-width="1" fill="none" fill-rule="evenodd">
        <g id="Homepage---Version-1" transform="translate(-73.000000, -42.000000)" fill="#FFFFFF">
            <g id="Header" transform="translate(73.000000, 42.000000)">
                <g id="Logo">
                    <path d="M5.9219,5.1207 L4.7759,5.1207 C4.5929,5.1207 4.4449,4.9787 4.4449,4.8037 L4.4449,1.8567 C4.4449,1.6817 4.2959,1.5387 4.1129,1.5387 L2.3229,1.5387 C2.1399,1.5387 1.9909,1.6817 1.9909,1.8567 L1.9909,4.8037 C1.9909,4.9787 1.8429,5.1207 1.6589,5.1207 L0.3319,5.1207 C0.1489,5.1207 -0.0001,5.2627 -0.0001,5.4377 L-0.0001,6.8427 C-0.0001,7.0187 0.1489,7.1607 0.3319,7.1607 L1.6589,7.1607 C1.8429,7.1607 1.9909,7.3027 1.9909,7.4777 L1.9909,13.9667 C1.9909,15.8407 3.2549,16.8607 4.9649,16.8607 L5.9219,16.8607 C6.1049,16.8607 6.2539,16.7177 6.2539,16.5427 L6.2539,14.9727 C6.2539,14.8117 6.1189,14.6817 5.9509,14.6777 L5.9389,14.6777 L5.3369,14.6777 C4.7169,14.6777 4.4449,14.1797 4.4449,13.5397 L4.4449,7.4777 C4.4449,7.3027 4.5929,7.1607 4.7759,7.1607 L5.9219,7.1607 C6.1049,7.1607 6.2539,7.0187 6.2539,6.8427 L6.2539,5.4377 C6.2539,5.2627 6.1049,5.1207 5.9219,5.1207 L5.9219,5.1207 Z M84.9319,16.3087 L81.2449,11.0567 C81.1609,10.9377 81.1609,10.7817 81.2449,10.6627 L84.7599,5.6477 C84.9249,5.4127 84.7489,5.0967 84.4529,5.0967 L82.4279,5.0967 C82.2999,5.0967 82.1799,5.1597 82.1129,5.2647 L80.0579,8.4507 C79.9129,8.6747 79.5729,8.6747 79.4289,8.4507 L77.3729,5.2647 C77.3059,5.1597 77.1869,5.0967 77.0589,5.0967 L75.0339,5.0967 C74.7379,5.0967 74.5619,5.4127 74.7269,5.6477 L78.2419,10.6627 C78.3259,10.7817 78.3259,10.9377 78.2419,11.0567 L74.5539,16.3087 C74.3889,16.5447 74.5649,16.8607 74.8609,16.8607 L76.8889,16.8607 C77.0149,16.8607 77.1329,16.7987 77.2009,16.6977 L79.4319,13.3647 C79.5779,13.1467 79.9089,13.1467 80.0549,13.3647 L82.2859,16.6977 C82.3539,16.7987 82.4709,16.8607 82.5969,16.8607 L84.6249,16.8607 C84.9209,16.8607 85.0969,16.5447 84.9319,16.3087 L84.9319,16.3087 Z M70.9329,9.9587 L66.4569,9.9587 C66.2409,9.9587 66.0609,9.7787 66.0879,9.5737 C66.2909,7.9957 67.3289,7.1607 68.7069,7.1607 C70.0859,7.1607 71.1029,7.9967 71.3029,9.5737 C71.3289,9.7787 71.1489,9.9587 70.9329,9.9587 L70.9329,9.9587 Z M68.7069,4.9777 C66.3279,4.9777 63.6019,6.4487 63.6019,11.0257 C63.6019,15.8407 66.5509,17.0027 69.0789,17.0027 C70.5499,17.0027 71.9149,16.5737 73.0539,15.5847 C73.2029,15.4547 73.2089,15.2277 73.0749,15.0847 L72.0019,13.9447 C71.8659,13.7997 71.6389,13.7957 71.4839,13.9217 C70.7609,14.5047 69.8859,14.8207 69.0289,14.8207 C67.9639,14.8207 66.9979,14.3937 66.4769,13.5637 C66.2329,13.1557 66.1059,12.7477 66.0679,12.1967 C66.0539,11.9887 66.2179,11.8087 66.4359,11.8087 L73.4189,11.8087 C73.6229,11.8087 73.7879,11.6507 73.7879,11.4557 L73.7879,10.1487 C73.7879,6.9227 71.4339,4.9777 68.7069,4.9777 L68.7069,4.9777 Z M62.3829,0.3537 L61.1589,0.3537 C59.2499,0.3537 57.8129,1.3497 57.8129,3.5307 L57.8129,4.7737 C57.8129,4.9657 57.6509,5.1207 57.4509,5.1207 L56.1839,5.1207 C55.9839,5.1207 55.8219,5.2757 55.8219,5.4667 L55.8219,6.8137 C55.8219,7.0057 55.9839,7.1607 56.1839,7.1607 L57.4509,7.1607 C57.6509,7.1607 57.8129,7.3157 57.8129,7.5067 L57.8129,16.5137 C57.8129,16.7047 57.9759,16.8607 58.1749,16.8607 L59.9039,16.8607 C60.1039,16.8607 60.2659,16.7047 60.2659,16.5137 L60.2659,7.5067 C60.2659,7.3157 60.4289,7.1607 60.6289,7.1607 L62.3829,7.1607 C62.5829,7.1607 62.7449,7.0057 62.7449,6.8137 L62.7449,5.4667 C62.7449,5.2757 62.5829,5.1207 62.3829,5.1207 L60.6289,5.1207 C60.4289,5.1207 60.2659,4.9657 60.2659,4.7737 L60.2659,3.7687 C60.2659,3.0337 60.5389,2.5347 61.3569,2.5347 L62.3829,2.5347 C62.5829,2.5347 62.7449,2.3797 62.7449,2.1887 L62.7449,0.6997 C62.7449,0.5087 62.5829,0.3537 62.3829,0.3537 L62.3829,0.3537 Z M53.2139,-0.0003 L53.1819,-0.0003 C52.3079,-0.0003 51.5989,0.6787 51.5989,1.5157 C51.5989,2.3527 52.3079,3.0307 53.1819,3.0307 L53.2139,3.0307 C54.0889,3.0307 54.7979,2.3527 54.7979,1.5157 C54.7979,0.6787 54.0889,-0.0003 53.2139,-0.0003 L53.2139,-0.0003 Z M53.9479,5.1207 L52.4489,5.1207 C52.1849,5.1207 51.9719,5.3247 51.9719,5.5767 L51.9719,16.4037 C51.9719,16.6557 52.1849,16.8607 52.4489,16.8607 L53.9479,16.8607 C54.2109,16.8607 54.4249,16.6557 54.4249,16.4037 L54.4249,5.5767 C54.4249,5.3247 54.2109,5.1207 53.9479,5.1207 L53.9479,5.1207 Z M47.2029,10.0777 C46.7319,9.9587 46.2369,9.9107 45.6669,9.8397 C45.1459,9.7687 44.6259,9.7687 44.0559,9.7457 C42.7919,9.6747 42.3949,9.1527 42.3949,8.6067 C42.3949,7.7767 42.9399,7.1607 44.5519,7.1607 C45.7609,7.1607 46.6589,7.4967 47.5389,8.0367 C47.7269,8.1517 47.9749,8.1117 48.1029,7.9367 L48.9839,6.7337 C49.1109,6.5607 49.0759,6.3187 48.8979,6.1947 C47.7759,5.4137 46.4529,4.9777 44.5519,4.9777 C41.9739,4.9777 39.9419,6.1877 39.9419,8.5837 C39.9419,10.3857 41.1559,11.4767 42.9399,11.8317 C43.8329,11.9987 44.7499,11.8797 45.6419,12.0227 C46.5089,12.1637 47.2279,12.4017 47.2279,13.2787 C47.2279,14.2987 46.1869,14.8207 44.7739,14.8207 C43.2549,14.8207 42.1589,14.4157 41.1769,13.5897 C40.9999,13.4397 40.7319,13.4507 40.5809,13.6247 L39.6079,14.7547 C39.4639,14.9227 39.4859,15.1777 39.6619,15.3137 C41.1439,16.4647 42.7949,17.0027 44.5759,17.0027 C47.4509,17.0027 49.6819,15.6507 49.6819,13.3977 C49.6819,11.3107 48.6159,10.4567 47.2029,10.0777 L47.2029,10.0777 Z M33.9529,4.9777 C32.5899,4.9777 31.5129,5.4167 30.7309,6.3537 C30.6979,6.3937 30.6569,6.4057 30.6569,6.3537 L30.6569,5.5227 C30.6569,5.2877 30.4579,5.0967 30.2129,5.0967 L28.6479,5.0967 C28.4029,5.0967 28.2039,5.2877 28.2039,5.5227 L28.2039,16.4347 C28.2039,16.6697 28.4029,16.8607 28.6479,16.8607 L30.2129,16.8607 C30.4579,16.8607 30.6569,16.6697 30.6569,16.4347 L30.6569,9.8637 C30.6569,8.2277 31.7229,7.3027 33.1359,7.3027 C34.5479,7.3027 35.6139,8.2277 35.6139,9.8637 L35.6139,16.4347 C35.6139,16.6697 35.8129,16.8607 36.0579,16.8607 L37.6219,16.8607 C37.8679,16.8607 38.0669,16.6697 38.0669,16.4347 L38.0669,9.0337 C38.0669,6.3767 35.8609,4.9777 33.9529,4.9777 L33.9529,4.9777 Z M23.8879,12.7337 C23.8879,13.4217 23.7389,13.9197 23.4169,14.2277 C23.0199,14.6307 22.2269,14.8207 21.0619,14.8207 C19.3769,14.8207 18.6829,14.1327 18.6829,13.3027 C18.6829,12.4257 19.3769,11.8557 20.8639,11.8557 L23.8879,11.8557 L23.8879,12.7337 Z M24.9039,5.8087 C24.0119,5.2157 22.7479,4.9777 21.1869,4.9777 C19.5979,4.9777 18.3739,5.3837 17.4939,6.1947 C17.3349,6.3417 17.3469,6.5907 17.5039,6.7387 L18.5539,7.7277 C18.7089,7.8737 18.9509,7.8717 19.1109,7.7307 C19.5569,7.3377 20.2489,7.1607 21.3099,7.1607 C23.0949,7.1607 23.8879,7.5397 23.8879,8.6787 L23.8879,9.9587 L22.8719,9.9587 L20.3929,9.9587 C17.7419,9.9587 16.4029,11.5237 16.4029,13.4217 C16.4029,14.6307 16.9489,15.6507 17.9649,16.2907 C18.6829,16.7417 19.6249,17.0027 20.7399,17.0027 C22.4249,17.0027 23.4469,16.3877 23.7889,15.8167 C23.8339,15.7417 23.8879,15.7717 23.8879,15.8167 L23.8879,16.4747 C23.8879,16.6877 24.0679,16.8607 24.2909,16.8607 L25.9129,16.8607 C26.1359,16.8607 26.3159,16.6877 26.3159,16.4747 L26.3159,8.7967 C26.3159,7.3737 25.7959,6.4487 24.9039,5.8087 L24.9039,5.8087 Z M16.1939,5.5177 C15.5639,5.1527 14.8919,4.9777 14.1469,4.9777 C12.7839,4.9777 11.7179,5.4287 10.9249,6.3537 L10.8509,6.3537 L10.8509,5.4367 C10.8509,5.2487 10.6919,5.0967 10.4949,5.0967 L8.7529,5.0967 C8.5559,5.0967 8.3969,5.2487 8.3969,5.4367 L8.3969,16.5207 C8.3969,16.7077 8.5559,16.8607 8.7529,16.8607 L10.4949,16.8607 C10.6919,16.8607 10.8509,16.7077 10.8509,16.5207 L10.8509,9.7927 C10.8509,8.0137 12.0649,7.3027 13.2799,7.3027 C13.8369,7.3027 14.2049,7.3847 14.6419,7.6727 C14.7989,7.7767 15.0159,7.7347 15.1259,7.5847 L16.2899,6.0017 C16.4049,5.8437 16.3659,5.6177 16.1939,5.5177 L16.1939,5.5177 Z" id="Fill-1"/>
                </g>
            </g>
        </g>
    </g>
</svg>