<svg id="Camada_1" data-name="Camada 1" xmlns="http://www.w3.org/2000/svg" viewBox="0 0 474 94.82"><defs><style>.cls-1{fill:#fff;}</style></defs><title>transifex</title><g id="Page-1"><g id="Homepage---Version-1"><g id="Header"><g id="Logo"><path id="Fill-1" class="cls-1" d="M62,30.15H55.63a1.81,1.81,0,0,1-1.85-1.77V11.95a1.82,1.82,0,0,0-1.85-1.77H42a1.82,1.82,0,0,0-1.85,1.77V28.38a1.81,1.81,0,0,1-1.85,1.77h-7.4A1.81,1.81,0,0,0,29,31.92v7.84a1.81,1.81,0,0,0,1.85,1.77h7.4a1.81,1.81,0,0,1,1.85,1.77V79.48c0,10.45,7,16.14,16.59,16.14H62a1.82,1.82,0,0,0,1.85-1.77V85.09a1.69,1.69,0,0,0-1.69-1.65H58.76c-3.46,0-5-2.78-5-6.35V43.29a1.81,1.81,0,0,1,1.85-1.77H62a1.81,1.81,0,0,0,1.85-1.77V31.92A1.81,1.81,0,0,0,62,30.15ZM502.65,92.54,482.08,63.25a1.89,1.89,0,0,1,0-2.2l19.6-28A2,2,0,0,0,500,30H488.68a2.08,2.08,0,0,0-1.76.94L475.46,48.72a2.11,2.11,0,0,1-3.51,0L460.49,31a2.07,2.07,0,0,0-1.75-.94H447.45a2,2,0,0,0-1.71,3.07l19.6,28a1.89,1.89,0,0,1,0,2.2L444.77,92.54a2,2,0,0,0,1.71,3.08h11.31a2.1,2.1,0,0,0,1.74-.91L472,76.12a2.11,2.11,0,0,1,3.47,0l12.44,18.59a2.09,2.09,0,0,0,1.73.91h11.31a2,2,0,0,0,1.71-3.08ZM424.58,57.13h-25A2,2,0,0,1,397.56,55c1.13-8.8,6.92-13.46,14.61-13.46S425.53,46.19,426.64,55a2,2,0,0,1-2.06,2.15ZM412.16,29.35c-13.27,0-28.47,8.2-28.47,33.73,0,26.85,16.45,33.33,30.54,33.33a32.83,32.83,0,0,0,22.17-7.91,1.94,1.94,0,0,0,.12-2.79l-6-6.36a2.12,2.12,0,0,0-2.89-.13,22,22,0,0,1-13.69,5c-5.94,0-11.33-2.38-14.23-7a16.1,16.1,0,0,1-2.28-7.62,2,2,0,0,1,2.05-2.16h38.94a2,2,0,0,0,2.06-2V58.19c0-18-13.13-28.84-28.34-28.84ZM376.9,3.56h-6.83c-10.65,0-18.66,5.55-18.66,17.72v6.93a2,2,0,0,1-2,1.94h-7.07a2,2,0,0,0-2,1.93v7.51a2,2,0,0,0,2,1.94h7.07a2,2,0,0,1,2,1.93V93.68a2,2,0,0,0,2,1.94h9.64a2,2,0,0,0,2-1.94V43.45a2,2,0,0,1,2-1.93h9.78a2,2,0,0,0,2-1.94V32.08a2,2,0,0,0-2-1.93h-9.78a2,2,0,0,1-2-1.94v-5.6c0-4.1,1.52-6.88,6.08-6.88h5.72a2,2,0,0,0,2-1.93V5.49a2,2,0,0,0-2-1.93Zm-51.13-2h-.18A8.65,8.65,0,0,0,316.76,10a8.64,8.64,0,0,0,8.83,8.45h.18A8.65,8.65,0,0,0,334.6,10a8.65,8.65,0,0,0-8.83-8.45Zm4.09,28.56H321.5a2.6,2.6,0,0,0-2.66,2.54V93.07a2.61,2.61,0,0,0,2.66,2.55h8.36a2.61,2.61,0,0,0,2.66-2.55V32.69a2.6,2.6,0,0,0-2.66-2.54ZM292.24,57.79a71.68,71.68,0,0,0-8.57-1.33c-2.91-.4-5.81-.4-9-.52-7-.4-9.26-3.31-9.26-6.35,0-4.63,3-8.06,12-8.06a30.09,30.09,0,0,1,16.66,4.89,2.37,2.37,0,0,0,3.15-.56l4.91-6.71a2.12,2.12,0,0,0-.48-3c-6.26-4.36-13.64-6.79-24.24-6.79-14.38,0-25.71,6.75-25.71,20.11,0,10,6.77,16.13,16.72,18.11,5,.93,10.09.27,15.07,1.07s8.84,2.11,8.84,7c0,5.69-5.81,8.6-13.69,8.6-8.47,0-14.58-2.26-20.06-6.87a2.38,2.38,0,0,0-3.32.2l-5.43,6.3a2.16,2.16,0,0,0,.3,3.12,43.56,43.56,0,0,0,27.4,9.42c16,0,28.47-7.54,28.47-20.1,0-11.64-5.94-16.4-13.82-18.51ZM218.35,29.35c-7.6,0-13.61,2.45-18,7.67-.18.22-.41.29-.41,0V32.39A2.43,2.43,0,0,0,197.49,30h-8.73a2.43,2.43,0,0,0-2.48,2.38V93.24a2.43,2.43,0,0,0,2.48,2.38h8.73A2.43,2.43,0,0,0,200,93.24V56.6c0-9.12,5.94-14.28,13.82-14.28s13.82,5.16,13.82,14.28V93.24a2.43,2.43,0,0,0,2.48,2.38h8.72a2.43,2.43,0,0,0,2.48-2.38V52c0-14.82-12.3-22.62-22.94-22.62ZM162.22,72.6c0,3.84-.83,6.61-2.63,8.33-2.21,2.25-6.64,3.31-13.13,3.31-9.4,0-13.27-3.84-13.27-8.47,0-4.89,3.87-8.07,12.16-8.07h16.86ZM167.88,34c-5-3.31-12-4.63-20.73-4.63-8.86,0-15.69,2.26-20.6,6.79a2.07,2.07,0,0,0,.06,3l5.86,5.52a2.31,2.31,0,0,0,3.11,0c2.49-2.19,6.35-3.18,12.26-3.18,10,0,14.38,2.11,14.38,8.47v7.14H142.73c-14.78,0-22.25,8.73-22.25,19.31a18.25,18.25,0,0,0,8.71,16,28.91,28.91,0,0,0,15.48,4c9.4,0,15.1-3.43,17-6.61.25-.42.55-.25.55,0v3.67a2.2,2.2,0,0,0,2.25,2.15h9a2.2,2.2,0,0,0,2.25-2.15V50.65c0-7.94-2.9-13.09-7.87-16.66Zm-48.57-1.62a22.19,22.19,0,0,0-11.42-3c-7.6,0-13.55,2.52-18,7.67h-.41V31.91a1.94,1.94,0,0,0-2-1.9H77.81a1.94,1.94,0,0,0-2,1.9V93.72a1.94,1.94,0,0,0,2,1.9h9.71a1.94,1.94,0,0,0,2-1.9V56.2c0-9.92,6.77-13.89,13.55-13.89a12.29,12.29,0,0,1,7.6,2.06,2,2,0,0,0,2.7-.49l6.49-8.83a1.85,1.85,0,0,0-.54-2.7Z" transform="translate(-29 -1.59)"/></g></g></g></g></svg>