<?xml version="1.0" encoding="UTF-8" standalone="no"?><!DOCTYPE svg PUBLIC "-//W3C//DTD SVG 1.1//EN" "http://www.w3.org/Graphics/SVG/1.1/DTD/svg11.dtd"><svg width="100%" height="100%" viewBox="0 0 205 161" version="1.1" xmlns="http://www.w3.org/2000/svg" xmlns:xlink="http://www.w3.org/1999/xlink" xml:space="preserve" style="fill-rule:evenodd;clip-rule:evenodd;stroke-linejoin:round;stroke-miterlimit:1.41421;"><g><path d="M198.813,63.53l-36.26,0l-7.994,-49.44c-0.747,-4.667 -3.467,-8.795 -7.42,-11.375c-3.965,-2.583 -8.867,-3.361 -13.438,-2.169l-1.97,0.523c-19.39,5.074 -39.88,5.074 -59.258,-0.005l-1.969,-0.518c-4.579,-1.197 -9.477,-0.402 -13.446,2.183c-3.957,2.582 -6.663,6.678 -7.412,11.341l-8.009,49.46l-36.264,0c-2.966,0 -5.373,2.405 -5.373,5.373c0,14.815 12.052,26.863 26.864,26.863l150.451,0c14.824,0 26.865,-12.048 26.865,-26.863c0,-2.968 -2.407,-5.373 -5.367,-5.373Zm-138.561,-47.746c0.276,-1.708 1.225,-3.138 2.676,-4.082c1.452,-0.945 3.178,-1.21 4.845,-0.776l1.965,0.526c21.171,5.551 43.545,5.557 64.698,0.019l1.97,-0.512c1.678,-0.439 3.401,-0.157 4.853,0.79c1.454,0.943 2.401,2.345 2.675,4.055l3.993,24.62l-91.669,0l3.994,-24.64Zm-5.73,35.386l95.136,0l2.004,12.359l-99.14,0l2,-12.359Zm122.794,33.857l-150.452,0c-7.007,0 -12.979,-4.305 -15.196,-10.753l180.843,0c-2.206,6.448 -8.192,10.753 -15.195,10.753Z" style="fill:#fff;fill-rule:nonzero;"/><path d="M160.125,111.891l-39.762,0c-7.011,0 -12.811,5.377 -13.608,11.819l-9.327,0c-0.799,-6.442 -6.592,-11.819 -13.606,-11.819l-39.76,0c-7.555,0 -13.972,5.998 -13.972,13.552l0,8.688c0,15.051 12.322,26.115 28.929,26.115l9.846,0c16.44,0 28.409,-10.746 28.653,-25.791l9.151,0c0.249,15.045 12.209,25.791 28.647,25.791l9.853,0c16.609,0 28.388,-11.064 28.388,-26.115l0,-8.688c-0.001,-7.554 -5.873,-13.552 -13.432,-13.552Zm-73.615,22.24c0,10.514 -8.729,15.369 -17.642,15.369l-9.85,0c-8.915,0 -18.178,-4.855 -18.178,-15.369l0,-8.688c0,-1.627 1.589,-2.807 3.221,-2.807l39.76,0c1.63,0 2.688,1.18 2.688,2.807l0,8.688l0.001,0Zm76.296,0c0,10.514 -8.727,15.379 -17.638,15.379l-9.846,0c-8.923,0 -18.184,-4.865 -18.184,-15.379l0,-8.688c0,-1.627 1.596,-2.807 3.226,-2.807l39.762,0c1.632,0 2.681,1.18 2.681,2.807l0,8.688l-0.001,0Z" style="fill:#fff;fill-rule:nonzero;"/></g></svg>